<svg viewBox="0 0 512 512"><path d="m443.188 442.208-27.232-299.648c-.768-8.256-7.68-14.56-15.968-14.56h-48v-32c0-25.728-9.952-49.888-28.032-67.968s-42.24-28.032-67.968-28.032c-52.928 0-96 43.072-96 96v32h-48c-8.288 0-15.2 6.304-15.936 14.56l-27.232 299.648c-1.632 17.856 4.384 35.712 16.48 48.96s29.312 20.832 47.264 20.832h246.88c17.952 0 35.168-7.584 47.264-20.832s18.08-31.104 16.48-48.96zm-251.2-346.208c0-35.296 28.704-64 64-64 17.184 0 33.28 6.624 45.344 18.656s18.656 28.16 18.656 45.344v32h-128zm211.072 373.6c-6.144 6.688-14.528 10.4-23.648 10.4h-246.848c-9.088 0-17.504-3.712-23.616-10.432-6.144-6.72-9.056-15.392-8.224-24.48l25.888-285.088h33.376v48c0 8.832 7.168 16 16 16s16-7.168 16-16v-48h128v48c0 8.832 7.168 16 16 16s16-7.168 16-16v-48h33.376l25.92 285.12c.832 9.056-2.08 17.76-8.224 24.48z"/></svg>