<svg viewBox="0 0 512 512"><path d="m225.474 0c-124.323 0-225.474 101.151-225.474 225.474 0 124.33 101.151 225.474 225.474 225.474 124.33 0 225.474-101.144 225.474-225.474 0-124.323-101.144-225.474-225.474-225.474zm0 409.323c-101.373 0-183.848-82.475-183.848-183.848s82.475-183.849 183.848-183.849 183.848 82.475 183.848 183.848-82.475 183.849-183.848 183.849z"/><path d="m505.902 476.472-119.328-119.328c-8.131-8.131-21.299-8.131-29.43 0-8.131 8.124-8.131 21.306 0 29.43l119.328 119.328c4.065 4.065 9.387 6.098 14.715 6.098 5.321 0 10.649-2.033 14.715-6.098 8.131-8.124 8.131-21.306 0-29.43z"/></svg>